<?xml version="1.0" encoding="UTF-8" standalone="no"?>
<svg
   xmlns:dc="http://purl.org/dc/elements/1.1/"
   xmlns:cc="http://creativecommons.org/ns#"
   xmlns:rdf="http://www.w3.org/1999/02/22-rdf-syntax-ns#"
   xmlns:svg="http://www.w3.org/2000/svg"
   xmlns="http://www.w3.org/2000/svg"
   xmlns:sodipodi="http://sodipodi.sourceforge.net/DTD/sodipodi-0.dtd"
   xmlns:inkscape="http://www.inkscape.org/namespaces/inkscape"
   version="1.1"
   width="36"
   height="36"
   id="svg3821"
   sodipodi:docname="logo.svg"
   inkscape:version="0.92.4 (f8dce91, 2019-08-02)">
  <metadata
     id="metadata3827">
    <rdf:RDF>
      <cc:Work
         rdf:about="">
        <dc:format>image/svg+xml</dc:format>
        <dc:type
           rdf:resource="http://purl.org/dc/dcmitype/StillImage" />
        <dc:title></dc:title>
      </cc:Work>
    </rdf:RDF>
  </metadata>
  <defs
     id="defs3825" />
  <sodipodi:namedview
     pagecolor="#ffffff"
     bordercolor="#666666"
     borderopacity="1"
     objecttolerance="10"
     gridtolerance="10"
     guidetolerance="10"
     inkscape:pageopacity="0"
     inkscape:pageshadow="2"
     inkscape:window-width="2495"
     inkscape:window-height="1416"
     id="namedview3823"
     showgrid="false"
     inkscape:zoom="1.97"
     inkscape:cx="224"
     inkscape:cy="139.72093"
     inkscape:window-x="65"
     inkscape:window-y="24"
     inkscape:window-maximized="1"
     inkscape:current-layer="svg3821" />
  <path
     d="m 10.034302,25.068768 -1.9703665,2.24312 v -0.979387 z m -0.2189294,6.571395 -0.1459491,2.148333 0.8757145,0.473905 -0.6567861,-2.401088 z m 26.3715414,-7.487595 -1.094642,0.853011 -0.912216,-0.0316 0.583814,-0.758239 -0.305987,-0.684421 -3.004903,-0.895239 -1.928981,-0.0042 -3.39342,0.821427 -3.570652,2.632469 0.464239,0.947971 0.950494,0.590391 0.727973,-1.512761 1.860904,0.758241 0.03649,0.442303 -1.350074,-0.505492 -0.21893,0.315935 1.313582,0.600272 0.474353,0.979387 -1.167632,-0.884609 -0.218929,0.126375 0.182444,2.590646 -1.496025,-1.61126 -0.02232,-0.198125 -3.07919,1.114333 -1.05816,-2.104225 -0.275873,-1.167925 -0.2242,0.131623 0.208166,3.686457 1.955249,1.659265 0.708399,-1.257396 1.897395,0.726642 v 0.379114 l -1.240602,-0.473896 -0.255422,0.379124 1.167629,0.537085 0.510838,1.042577 -1.094652,-0.916208 -0.328393,0.126375 0.218928,2.559048 -1.38656,-1.358513 0.0038,-0.142726 -1.901145,0.616631 -1.094653,-1.988268 -0.02523,1.185116 1.104427,2.247341 -4.290365,-4.859459 0.547521,0.761435 0.437867,4.391462 -3.137998,-5.023325 -1.058167,2.148343 v 2.211522 l -1.532509,-4.328276 0.131309,-2.899195 -0.07689,0.03857 -2.2072437,2.527016 0.7856274,-2.723928 2.4317143,-2.888027 5.726213,-3.348849 -4.017626,0.479908 1.44541,-0.850539 -3.634713,-1.207837 1.81452,0.137037 -4.5511457,-2.185786 2.4812107,0.379123 0.981188,0.525509 -6.7219905,-4.44783 2.5700788,0.785684 -5.0162246,-3.979287 2.5229605,0.797866 0.7208561,0.07254 L 4.4056036,10.987296 0.63577273,6.310963 4.6583246,8.3941147 0,2.8587219 13.205156,8.921182 9.4655255,5.4426663 8.8809392,2.7050425 12.509184,5.4584686 10.184615,0.182397 l 15.7385,11.247195 0.410842,1.502694 2.543819,4.427731 -1.738416,-1.481928 0.663869,2.42815 0.494342,0.467389 3.15541,0.639953 3.191635,0.855131 1.506394,2.111737 z"
     id="path3819"
     inkscape:connector-curvature="0"
     style="stroke-width:0.07518084" />
</svg>
